#N canvas 144 565 1591 1019 12;
#X declare -path quacktrip~ -path lib -path conniption;
#X declare -path quacktrip/lib;
#X obj 821 280 change;
#X obj 358 532 outlet~;
#X obj 418 533 outlet~;
#X obj 367 162 inlet~;
#X obj 421 160 inlet~;
#X obj 35 83 tgl 15 0 \$0-onoff \$0-onoff-set empty 17 7 0 10 #fcfcfc
#000000 #000000 0 1;
#X text 54 81 ON/OFF;
#X obj 94 233 tgl 15 0 \$0-connected \$0-connected-set empty 17 7 0
10 #fcfcfc #000000 #000000 0 1;
#X text 22 231 connected;
#X text 136 231 packets in;
#X floatatom 215 232 7 0 0 0 - \$0-packets-in-set \$0-packets-in 0
;
#X floatatom 215 253 5 0 0 0 - \$0-dropouts-set \$0-dropouts 0;
#X text 148 252 dropouts;
#X obj 1418 73 setctl \$0-onoff;
#X floatatom 295 394 5 0 0 0 - \$0-nfill-set \$0-nfill 0;
#X text 253 395 fill;
#X text 29 161 server;
#X symbolatom 81 161 32 0 0 0 - \$0-server-set \$0-server 0;
#X symbolatom 95 138 30 0 0 0 - \$0-call-name-set \$0-call-name 0;
#X text 24 138 call name;
#X text 22 209 calling;
#X obj 80 213 bng 15 250 50 0 empty \$0-calling empty 17 7 0 10 #fcfcfc
#000000 #000000;
#X floatatom 112 108 5 3 100 0 - \$0-fifo-size-set \$0-fifo-size 0
;
#X obj 1418 120 setctl \$0-server;
#X obj 94 395 loadbang;
#X obj 28 395 f \$0;
#X obj 71 397 bng 15 250 50 0 empty empty empty 17 7 0 10 #fcfcfc #000000
#000000;
#X obj 1417 144 setctl \$0-call-name;
#X obj 1418 97 setctl \$0-fifo-size;
#X obj 1089 318 b;
#X obj 1092 388 f;
#X obj 1124 389 + 1;
#X obj 255 255 bng 15 250 50 0 empty empty empty 17 7 0 10 #fcfcfc
#000000 #000000;
#X text 272 252 reset;
#X msg 1039 318 0;
#X obj 999 361 b;
#X obj 999 386 f;
#X obj 1027 387 + 1;
#X obj 999 415 speedlim 100;
#X obj 1133 32 declare -path quacktrip~ -path lib -path conniption
;
#X obj 1128 296 s \$0-calling;
#X obj 999 442 s \$0-packets-in-set;
#X obj 1092 415 s \$0-dropouts-set;
#X obj 802 573 s \$0-nfill-set;
#X obj 1247 303 s \$0-connected-set;
#X obj 1387 274 print quack-panel-\$1;
#X obj 1238 355 sel 0;
#X obj 1238 380 0;
#X obj 1238 405 s \$0-fill-set;
#X obj 117 213 bng 15 250 50 0 empty \$0-server-answered empty 17 7
0 10 #fcfcfc #000000 #000000;
#X obj 1149 327 s \$0-server-answered;
#X obj 953 522 s \$0-remote-sr-set;
#X obj 910 522 t b f;
#X obj 911 550 samplerate~;
#X obj 911 575 s \$0-local-sr-set;
#X floatatom 71 330 5 0 0 0 - \$0-remote-sr-set \$0-remote-sr 0;
#X floatatom 71 309 5 0 0 0 - \$0-local-sr-set \$0-local-sr 0;
#X obj 975 327 route 0;
#N canvas 1280 122 791 665 latency-testing 0;
#N canvas 0 22 450 300 (subpatch) 0;
#X array \$0-pulse 120 float 3;
#A 0 0 0 0 0 0 0 0 0 0 0 -0 -6.19458e-05 -0.000494103 -0.00165937 -0.00390618
-0.00756153 -0.0129244 -0.0202596 -0.0297923 -0.0417031 -0.0561239
-0.0731343 -0.0927595 -0.114969 -0.139674 -0.166732 -0.195943 -0.227055
-0.259767 -0.293732 -0.328561 -0.363831 -0.39909 -0.433862 -0.467657
-0.499977 -0.530324 -0.558209 -0.583156 -0.604713 -0.622461 -0.636015
-0.645036 -0.649234 -0.648374 -0.642282 -0.630843 -0.614012 -0.591808
-0.564318 -0.531698 -0.494168 -0.452014 -0.405579 -0.355267 -0.301528
-0.244862 -0.185805 -0.124926 -0.0628189 -9.26574e-05 0.0626345 0.124745
0.185628 0.244691 0.301365 0.355113 0.405437 0.451883 0.494051 0.531595
0.56423 0.591735 0.613955 0.630802 0.642256 0.648364 0.649239 0.645055
0.636048 0.622507 0.604771 0.583224 0.558287 0.53041 0.500069 0.467754
0.433963 0.399193 0.363935 0.328665 0.293834 0.259866 0.22715 0.196032
0.166815 0.139751 0.115038 0.0928211 0.0731882 0.0561701 0.0417419
0.0298239 0.0202844 0.012943 0.00757468 0.00391473 0.00166424 0.000496283
6.24961e-05 0 0 0 0 0 0 0 0 0 0;
#X coords 0 1 119 -1 200 140 1;
#X restore 17 257 graph;
#X obj 38 447 t b b;
#X obj 109 508 f;
#X obj 147 508 + 1;
#X obj 38 476 until;
#X obj 109 536 t f f;
#X obj 30 619 tabwrite pulse;
#X obj 36 423 bng 15 250 50 0 empty empty empty 17 7 0 10 #fcfcfc #000000
#000000;
#X msg 129 430 \; pulse const 0;
#X msg 126 480 0;
#X obj 26 536 sel 100;
#X obj 141 619 + 10;
#X obj 33 567 * 0.06283;
#X obj 505 204 metro 1000;
#X obj 504 178 tgl 15 0 empty empty empty 17 7 0 10 #fcfcfc #000000
#000000 0 1;
#X obj 369 157 vline~;
#X obj 294 297 *~ 1e+10;
#X obj 294 324 clip~ 0 1;
#X obj 294 348 *~ 1e+10;
#X obj 295 384 lop~ 3;
#X obj 296 408 clip~ 0 1;
#X msg 501 354 clear;
#X msg 370 126 0 \, 12000 10;
#X obj 679 208 osc~ 220;
#X obj 618 248 *~ 0.03;
#X obj 69 85 bp~ 220 0.7;
#X obj 582 252 +~;
#X obj 68 109 rzero~ -1;
#X obj 69 134 rzero~ -1;
#X obj 69 160 *~ 0.15;
#X obj 293 109 rzero~ 1;
#X obj 294 134 rzero~ 1;
#X obj 30 592 expr -0.5 * (1-cos($f1)) * sin($f1);
#X obj 294 85 bp~ 2000 0.7;
#X obj 296 246 *~ 20;
#X obj 369 213 *~ 0.1;
#X obj 180 82 env~ 65536;
#X floatatom 180 109 4 0 0 0 - - - 0;
#X obj 69 187 bonk~;
#X obj 69 212 bng 15 250 50 0 empty empty empty 17 7 0 10 #fcfcfc #000000
#000000;
#X obj 295 270 -~ 0.1;
#X obj 297 437 -~ 1;
#X obj 297 464 *~ -1;
#X obj 325 514 phasor~;
#X msg 487 447 0;
#X obj 469 523 del 800;
#X obj 323 554 snapshot~;
#X floatatom 323 605 6 0 0 0 - - - 0;
#X obj 324 582 * 1000;
#X obj 386 600 s latency;
#X obj 112 214 s discontinuity;
#X obj 367 297 *~ 1e+10;
#X obj 367 324 clip~ 0 1;
#X obj 367 348 *~ 1e+10;
#X obj 368 384 lop~ 3;
#X obj 369 408 clip~ 0 1;
#X obj 368 270 -~ 0.1;
#X obj 368 246 *~ 20;
#X obj 324 490 *~;
#X obj 581 277 outlet~;
#X obj 659 130 switch~;
#X obj 444 30 r~ \$0-loopback;
#X obj 659 44 vradio 15 1 0 3 empty \$0-measure-latency empty 0 -8
0 10 #fcfcfc #000000 #000000 0;
#X floatatom 673 98 5 0 0 0 - - - 0;
#X text 680 41 off;
#X obj 504 153 == 1;
#X text 680 57 measure latency;
#X text 681 71 loop-back;
#X obj 619 170 tgl 15 0 empty empty empty 17 7 0 10 #fcfcfc #000000
#000000 0 1;
#X obj 619 145 == 2;
#X obj 583 172 *~ 0;
#X obj 571 82 writesf~;
#X msg 564 9 open /tmp/foo.wav \, start;
#X msg 584 39 stop;
#X obj 618 207 * 0.03;
#X obj 368 188 tabread4~ \$0-pulse;
#X obj 384 630 s \$0-latency;
#X connect 1 0 4 0;
#X connect 1 1 9 0;
#X connect 1 1 8 0;
#X connect 2 0 3 0;
#X connect 2 0 5 0;
#X connect 2 0 10 0;
#X connect 3 0 2 1;
#X connect 4 0 2 0;
#X connect 5 0 12 0;
#X connect 5 1 11 0;
#X connect 7 0 1 0;
#X connect 9 0 2 1;
#X connect 10 0 4 1;
#X connect 11 0 6 1;
#X connect 12 0 32 0;
#X connect 13 0 22 0;
#X connect 13 0 21 0;
#X connect 13 0 44 0;
#X connect 13 0 45 0;
#X connect 14 0 13 0;
#X connect 14 0 74 0;
#X connect 15 0 75 0;
#X connect 16 0 17 0;
#X connect 17 0 18 0;
#X connect 18 0 19 0;
#X connect 19 0 20 0;
#X connect 20 0 41 0;
#X connect 21 0 19 0;
#X connect 22 0 15 0;
#X connect 23 0 24 0;
#X connect 24 0 26 1;
#X connect 25 0 27 0;
#X connect 26 0 59 0;
#X connect 27 0 28 0;
#X connect 28 0 29 0;
#X connect 29 0 38 0;
#X connect 30 0 31 0;
#X connect 31 0 34 0;
#X connect 32 0 6 0;
#X connect 33 0 30 0;
#X connect 34 0 40 0;
#X connect 35 0 26 0;
#X connect 35 0 57 0;
#X connect 36 0 37 0;
#X connect 38 0 39 0;
#X connect 38 0 50 0;
#X connect 40 0 16 0;
#X connect 41 0 42 0;
#X connect 42 0 58 0;
#X connect 43 0 46 0;
#X connect 44 0 43 1;
#X connect 45 0 46 0;
#X connect 46 0 48 0;
#X connect 48 0 47 0;
#X connect 48 0 49 0;
#X connect 48 0 76 0;
#X connect 51 0 52 0;
#X connect 52 0 53 0;
#X connect 53 0 54 0;
#X connect 54 0 55 0;
#X connect 55 0 58 1;
#X connect 56 0 51 0;
#X connect 57 0 56 0;
#X connect 58 0 43 0;
#X connect 61 0 36 0;
#X connect 61 0 33 0;
#X connect 61 0 25 0;
#X connect 61 0 70 0;
#X connect 61 0 71 0;
#X connect 62 0 63 0;
#X connect 62 0 60 0;
#X connect 62 0 65 0;
#X connect 62 0 69 0;
#X connect 65 0 14 0;
#X connect 68 0 70 1;
#X connect 69 0 68 0;
#X connect 70 0 26 0;
#X connect 72 0 71 0;
#X connect 73 0 71 0;
#X connect 74 0 24 1;
#X connect 75 0 35 0;
#X restore 366 118 pd latency-testing;
#X obj 412 243 s~ \$0-loopback;
#X obj 821 357 line~;
#X obj 416 504 rpole~;
#X obj 821 305 sel 1 0;
#X obj 417 468 *~;
#X obj 821 382 *~ -1;
#X obj 821 406 +~ 1;
#X obj 821 330 1 5;
#X obj 850 330 0.0005;
#X obj 358 504 rpole~;
#X obj 358 467 *~;
#X obj 236 87 vradio 15 1 0 3 \$0-blksel \$0-blksel-set empty 0 -8
0 10 #fcfcfc #000000 #000000 0;
#X text 255 83 64;
#X text 253 100 128;
#X text 254 114 256;
#X floatatom 133 309 3 0 0 0 - \$0-local-ch-set \$0-local-ch 0;
#X floatatom 133 330 3 0 0 0 - \$0-remote-ch-set \$0-remote-ch 0;
#X floatatom 184 309 3 0 0 0 - \$0-local-blk-set \$0-local-blk 0;
#X floatatom 184 330 3 0 0 0 - \$0-remote-blk-set \$0-remote-blk 0
;
#X text 136 209 found server;
#X obj 1088 521 t b f;
#X obj 906 473 unpack 0 0 0 0 0;
#X obj 1131 521 s \$0-remote-ch-set;
#X obj 1089 574 s \$0-local-ch-set;
#X obj 1416 191 setctl \$0-blksel;
#X obj 1267 521 t b f;
#X obj 1461 515 r \$0-blksel;
#X obj 1461 540 sel 0 1;
#X msg 1461 565 64;
#X msg 1491 565 128;
#X msg 1521 565 256;
#X obj 1311 521 s \$0-remote-blk-set;
#X obj 1268 574 s \$0-local-blk-set;
#X obj 1461 590 s \$0-block;
#X obj 1416 169 setctl \$0-nchan;
#X obj 1268 550 v \$0-block;
#X obj 1089 549 v \$0-nchan;
#X text 40 308 out;
#X text 45 331 in;
#X text 68 275 sample rate, f 6;
#X text 178 276 block size, f 5;
#X text 116 288 channels;
#X floatatom 231 309 5 0 0 0 - \$0-local-mbits-set \$0-local-mbits
0;
#X text 225 273 mbits per sec, f 7;
#X text 237 67 block size;
#X obj 292 116 tgl 15 0 \$0-2x \$0-2x-set empty 17 7 0 10 #fcfcfc #000000
#000000 0 1;
#X text 289 95 2X;
#X obj 1415 215 setctl \$0-2x;
#X floatatom 231 330 5 0 0 0 - \$0-remote-mbits-set \$0-remote-mbits
0;
#X obj 887 250 route got-packet drop late miss request-call no-peer-yet
running bw, f 68;
#X text 36 191 ------ readouts (not settable): -------;
#N canvas 499 95 1267 602 to-quacktrip 0;
#X obj 16 545 outlet;
#X obj 77 223 sel 1 0;
#X obj 13 427 pack 0 s s;
#X obj 46 391 r \$0-server;
#X obj 98 425 r \$0-call-name;
#X msg 535 473 off;
#X msg 17 461 peer \$2 3840 \$3;
#X obj 844 471 r \$0-fifo-size;
#X msg 844 500 nbuf \$1;
#X msg 598 499 block \$1;
#X msg 683 501 nchan \$1;
#X obj 598 469 r \$0-block;
#X obj 77 196 r \$0-onoff;
#X obj 683 471 r \$0-nchan;
#X msg 757 502 repeat \$1;
#X obj 755 474 r \$0-2x;
#X obj 427 10 r \$0-call-name;
#X msg 436 154 0;
#X obj 998 180 loadbang;
#X obj 932 180 f \$0;
#X obj 975 182 bng 15 250 50 0 empty empty empty 17 7 0 10 #fcfcfc
#000000 #000000;
#X obj 1009 283 loadbang;
#X obj 985 309 f \$0;
#X obj 986 285 bng 15 250 50 0 empty empty empty 17 7 0 10 #fcfcfc
#000000 #000000;
#X msg 979 338 \; \$1-call-name symbol poodle;
#X obj 59 345 == 0;
#X obj 19 371 spigot;
#X obj 215 364 spigot;
#X msg 925 209 \; \$1-call-name symbol port_4477;
#X obj 427 35 list fromsymbol;
#X obj 428 61 list split 5;
#X obj 342 97 list tosymbol;
#X msg 228 459 client \$2 \$3;
#X obj 534 100 list tosymbol;
#X symbolatom 339 130 10 0 0 0 - - - 0;
#X symbolatom 541 124 10 0 0 0 - - - 0;
#X obj 434 186 symbol;
#X msg 443 98 symbol nope;
#X obj 340 154 select port_;
#X obj 434 211 float;
#X floatatom 447 237 5 0 0 0 - - - 0;
#X obj 268 364 r \$0-server;
#X obj 227 422 pack 0 s 0;
#X obj 1044 72 loadbang;
#X obj 978 72 f \$0;
#X obj 1021 74 bng 15 250 50 0 empty empty empty 17 7 0 10 #fcfcfc
#000000 #000000;
#X msg 971 101 \; \$1-call-name symbol zz;
#X obj 254 335 == 1;
#X obj 367 380 spigot;
#X obj 407 354 == 2;
#X text 56 318 peer;
#X text 204 333 client;
#X text 359 354 server;
#X obj 646 109 r \$0-server;
#X obj 646 134 select me;
#X msg 647 166 1;
#X msg 698 167 0;
#X obj 642 224 t b f;
#X obj 642 249 +;
#X obj 651 198 tgl 15 0 empty empty empty 17 7 0 10 #fcfcfc #000000
#000000 0 1;
#X obj 361 436 pack 0 0;
#X msg 361 464 server \$2;
#X obj 600 221 != 0;
#X floatatom 653 275 5 0 0 0 - - - 0;
#X floatatom 726 227 5 0 0 0 - - - 0;
#X connect 1 0 26 0;
#X connect 1 0 27 0;
#X connect 1 0 48 0;
#X connect 1 1 5 0;
#X connect 2 0 6 0;
#X connect 3 0 2 1;
#X connect 4 0 2 2;
#X connect 5 0 0 0;
#X connect 6 0 0 0;
#X connect 7 0 8 0;
#X connect 8 0 0 0;
#X connect 9 0 0 0;
#X connect 10 0 0 0;
#X connect 11 0 9 0;
#X connect 12 0 1 0;
#X connect 13 0 10 0;
#X connect 14 0 0 0;
#X connect 15 0 14 0;
#X connect 16 0 29 0;
#X connect 17 0 62 0;
#X connect 18 0 20 0;
#X connect 19 0 28 0;
#X connect 20 0 19 0;
#X connect 21 0 23 0;
#X connect 22 0 24 0;
#X connect 23 0 22 0;
#X connect 25 0 26 1;
#X connect 26 0 2 0;
#X connect 27 0 42 0;
#X connect 29 0 30 0;
#X connect 30 0 31 0;
#X connect 30 1 33 0;
#X connect 30 2 37 0;
#X connect 31 0 34 0;
#X connect 32 0 0 0;
#X connect 33 0 35 0;
#X connect 33 0 36 1;
#X connect 34 0 38 0;
#X connect 36 0 39 0;
#X connect 37 0 34 0;
#X connect 38 0 36 0;
#X connect 38 1 17 0;
#X connect 39 0 40 0;
#X connect 39 0 42 2;
#X connect 39 0 60 1;
#X connect 39 0 62 0;
#X connect 41 0 42 1;
#X connect 42 0 32 0;
#X connect 43 0 45 0;
#X connect 44 0 46 0;
#X connect 45 0 44 0;
#X connect 47 0 27 1;
#X connect 48 0 60 0;
#X connect 49 0 48 1;
#X connect 53 0 54 0;
#X connect 54 0 55 0;
#X connect 54 1 56 0;
#X connect 55 0 59 0;
#X connect 56 0 59 0;
#X connect 57 0 58 0;
#X connect 57 1 58 1;
#X connect 58 0 63 0;
#X connect 58 0 25 0;
#X connect 58 0 47 0;
#X connect 58 0 49 0;
#X connect 59 0 57 0;
#X connect 59 0 64 0;
#X connect 60 0 61 0;
#X connect 61 0 0 0;
#X connect 62 0 58 0;
#X restore 976 167 pd to-quacktrip;
#X obj 982 200 print to-q;
#X obj 1143 147 r \$0-call-name;
#X obj 1176 177 r \$0-server;
#X msg 1145 176 0;
#X obj 1145 203 s \$0-onoff;
#X text 1153 120 stop call if names change...;
#X obj 958 33 metro 1000;
#X obj 964 17 tgl 15 0 empty empty empty 17 7 0 10 #fcfcfc #000000
#000000 0 1;
#X obj 910 80 f;
#X msg 975 81 0;
#X obj 910 105 + 1;
#X obj 958 58 t b b;
#X obj 895 42 b;
#X obj 955 114 f;
#X floatatom 962 140 5 0 0 0 - - - 0;
#X text 28 107 input delay;
#X floatatom 70 253 3 0 0 0 - \$0-min-fill-set \$0-min-fill 0;
#X text 33 254 fill;
#X floatatom 110 253 3 0 0 0 - \$0-max-fill-set \$0-max-fill 0;
#X text 95 252 -;
#X obj 1384 432 s \$0-local-mbits-set;
#X obj 1351 456 s \$0-remote-mbits-set;
#X obj 1349 345 unpack 0 0 0 0;
#X obj 1411 406 s \$0-min-fill-set;
#X obj 1432 377 s \$0-max-fill-set;
#X obj 38 628 r quack-panel-\$1;
#X obj 447 694 symbol;
#X obj 447 719 s \$0-server;
#X obj 535 696 symbol;
#X obj 535 721 s \$0-call-name;
#X obj 218 723 s \$0-nchan;
#X obj 386 721 s \$0-2x;
#X obj 299 722 s \$0-blksel;
#X obj 30 722 s \$0-onoff;
#X obj 109 722 s \$0-fifo-size;
#X obj 33 760 r \$0-calling;
#X obj 368 822 s from-quackpanel-\$1;
#X msg 368 791 connected \$1;
#X obj 38 962 s from-quackpanel-\$1;
#X obj 38 848 r \$0-nfill;
#X msg 38 931 nfill \$1;
#X obj 1060 691 s from-quackpanel-\$1;
#X floatatom 648 688 6 0 0 0 - - - 0;
#X obj 1061 631 r \$0-latency;
#X obj 654 719 s \$0-measure-latency;
#X obj 196 816 s from-quackpanel-\$1;
#X obj 196 757 r \$0-server-answered;
#X msg 196 786 server-answered;
#X obj 193 962 s from-quackpanel-\$1;
#X obj 194 844 r \$0-packets-in;
#X msg 193 931 packets-in \$1;
#X obj 35 658 route on-off fifo-size nchan blksel 2x server call-name
reset-dropouts measure-latency, f 87;
#X obj 367 965 s from-quackpanel-\$1;
#X obj 367 850 r \$0-dropouts;
#X msg 367 934 dropouts \$1;
#X obj 559 850 s from-quackpanel-\$1;
#X obj 560 759 r \$0-local-sr;
#X msg 559 819 local-sr \$1;
#X obj 561 966 s from-quackpanel-\$1;
#X msg 561 935 remote-sr \$1;
#X obj 721 850 s from-quackpanel-\$1;
#X obj 723 966 s from-quackpanel-\$1;
#X obj 722 759 r \$0-local-ch;
#X msg 721 819 local-ch \$1;
#X msg 723 935 remote-ch \$1;
#X obj 886 850 s from-quackpanel-\$1;
#X obj 889 970 s from-quackpanel-\$1;
#X obj 885 758 r \$0-local-blk;
#X msg 886 820 local-blk \$1;
#X msg 889 939 remote-blk \$1;
#X obj 1044 850 s from-quackpanel-\$1;
#X obj 1047 970 s from-quackpanel-\$1;
#X obj 1043 759 r \$0-local-mbits;
#X msg 1044 820 local-mbits \$1;
#X msg 1047 939 remote-mbits \$1;
#X msg 1060 661 latency \$1;
#X obj 33 819 s from-quackpanel-\$1;
#X msg 33 788 calling;
#X obj 368 761 r \$0-connected;
#X obj 38 903 change;
#X obj 193 901 change;
#X obj 367 907 change;
#X obj 560 787 change;
#X obj 721 790 change;
#X obj 886 789 change;
#X obj 1044 789 change;
#X obj 559 879 r \$0-remote-sr;
#X obj 721 879 r \$0-remote-ch;
#X obj 887 883 r \$0-remote-blk;
#X obj 1045 883 r \$0-remote-mbits;
#X obj 561 907 change;
#X obj 722 910 change;
#X obj 887 909 change;
#X obj 1045 909 change;
#X obj 38 877 speedlim 200;
#X obj 193 872 speedlim 200;
#X obj 367 877 speedlim 200;
#X obj 797 630 declare -path quacktrip/lib;
#X text 178 617 (don't forget to set latency switch receive property
to \$0-measure-latency and add \$0-measure-latency to latency-testing)
, f 65;
#X obj 368 203 quacktrip-octo~, f 55;
#X msg 27 419 \; \$1-onoff 0 \; \$1-fifo-size 10 \; \$1-server symbol
foo.ucsd.edu \; \$1-call-name symbol this-call-name \; \$1-block 64
\; \$1-nchan 8 \;;
#X obj 470 161 inlet~;
#X obj 524 159 inlet~;
#X obj 577 160 inlet~;
#X obj 631 158 inlet~;
#X obj 683 159 inlet~;
#X obj 744 159 inlet~;
#X obj 475 535 outlet~;
#X obj 535 536 outlet~;
#X obj 535 507 rpole~;
#X obj 534 471 *~;
#X obj 475 507 rpole~;
#X obj 475 470 *~;
#X obj 595 537 outlet~;
#X obj 655 538 outlet~;
#X obj 644 509 rpole~;
#X obj 644 473 *~;
#X obj 595 509 rpole~;
#X obj 595 472 *~;
#X obj 712 540 outlet~;
#X obj 772 541 outlet~;
#X obj 761 512 rpole~;
#X obj 761 476 *~;
#X obj 712 512 rpole~;
#X obj 712 475 *~;
#X connect 0 0 62 0;
#X connect 3 0 210 0;
#X connect 4 0 210 1;
#X connect 24 0 26 0;
#X connect 25 0 211 0;
#X connect 26 0 25 0;
#X connect 29 0 30 0;
#X connect 30 0 31 0;
#X connect 30 0 42 0;
#X connect 31 0 30 1;
#X connect 32 0 34 0;
#X connect 34 0 36 0;
#X connect 34 0 30 0;
#X connect 35 0 36 0;
#X connect 36 0 37 0;
#X connect 36 0 38 0;
#X connect 37 0 36 1;
#X connect 38 0 41 0;
#X connect 46 0 47 0;
#X connect 47 0 48 0;
#X connect 52 0 53 0;
#X connect 52 1 51 0;
#X connect 53 0 54 0;
#X connect 57 1 35 0;
#X connect 58 0 210 0;
#X connect 60 0 64 0;
#X connect 60 0 63 1;
#X connect 60 0 69 1;
#X connect 60 0 229 1;
#X connect 60 0 227 1;
#X connect 60 0 235 1;
#X connect 60 0 233 1;
#X connect 60 0 223 1;
#X connect 60 0 221 1;
#X connect 61 0 2 0;
#X connect 62 0 66 0;
#X connect 62 1 67 0;
#X connect 63 0 61 0;
#X connect 64 0 65 0;
#X connect 65 0 61 1;
#X connect 65 0 68 1;
#X connect 65 0 228 1;
#X connect 65 0 226 1;
#X connect 65 0 234 1;
#X connect 65 0 232 1;
#X connect 65 0 220 1;
#X connect 65 0 222 1;
#X connect 66 0 60 0;
#X connect 67 0 60 0;
#X connect 68 0 1 0;
#X connect 69 0 68 0;
#X connect 79 0 95 0;
#X connect 79 1 81 0;
#X connect 80 0 0 0;
#X connect 80 1 43 0;
#X connect 80 2 52 0;
#X connect 80 3 79 0;
#X connect 80 4 84 0;
#X connect 84 0 94 0;
#X connect 84 1 90 0;
#X connect 85 0 86 0;
#X connect 86 0 87 0;
#X connect 86 1 88 0;
#X connect 86 2 89 0;
#X connect 87 0 92 0;
#X connect 88 0 92 0;
#X connect 89 0 92 0;
#X connect 94 0 91 0;
#X connect 95 0 82 0;
#X connect 108 0 57 0;
#X connect 108 0 80 0;
#X connect 108 0 123 0;
#X connect 108 1 29 0;
#X connect 108 2 29 0;
#X connect 108 3 29 0;
#X connect 108 4 40 0;
#X connect 108 5 50 0;
#X connect 108 6 46 0;
#X connect 108 6 44 0;
#X connect 108 7 133 0;
#X connect 108 8 45 0;
#X connect 110 0 210 8;
#X connect 112 0 114 0;
#X connect 113 0 114 0;
#X connect 114 0 115 0;
#X connect 117 0 122 0;
#X connect 118 0 117 0;
#X connect 119 0 121 0;
#X connect 120 0 119 1;
#X connect 121 0 119 1;
#X connect 121 0 124 1;
#X connect 122 0 120 0;
#X connect 122 1 124 0;
#X connect 123 0 119 0;
#X connect 124 0 125 0;
#X connect 133 0 132 0;
#X connect 133 1 131 0;
#X connect 133 2 134 0;
#X connect 133 3 135 0;
#X connect 136 0 162 0;
#X connect 137 0 138 0;
#X connect 139 0 140 0;
#X connect 146 0 188 0;
#X connect 148 0 147 0;
#X connect 150 0 205 0;
#X connect 151 0 149 0;
#X connect 153 0 155 0;
#X connect 154 0 186 0;
#X connect 157 0 158 0;
#X connect 158 0 156 0;
#X connect 160 0 206 0;
#X connect 161 0 159 0;
#X connect 162 0 144 0;
#X connect 162 1 145 0;
#X connect 162 2 141 0;
#X connect 162 3 143 0;
#X connect 162 4 142 0;
#X connect 162 5 137 0;
#X connect 162 6 139 0;
#X connect 162 7 32 0;
#X connect 162 8 155 0;
#X connect 164 0 207 0;
#X connect 165 0 163 0;
#X connect 167 0 193 0;
#X connect 168 0 166 0;
#X connect 170 0 169 0;
#X connect 173 0 194 0;
#X connect 174 0 171 0;
#X connect 175 0 172 0;
#X connect 178 0 195 0;
#X connect 179 0 176 0;
#X connect 180 0 177 0;
#X connect 183 0 196 0;
#X connect 184 0 181 0;
#X connect 185 0 182 0;
#X connect 186 0 152 0;
#X connect 188 0 187 0;
#X connect 189 0 148 0;
#X connect 190 0 151 0;
#X connect 191 0 161 0;
#X connect 192 0 165 0;
#X connect 193 0 168 0;
#X connect 194 0 174 0;
#X connect 195 0 179 0;
#X connect 196 0 184 0;
#X connect 197 0 201 0;
#X connect 198 0 202 0;
#X connect 199 0 203 0;
#X connect 200 0 204 0;
#X connect 201 0 170 0;
#X connect 202 0 175 0;
#X connect 203 0 180 0;
#X connect 204 0 185 0;
#X connect 205 0 190 0;
#X connect 206 0 191 0;
#X connect 207 0 192 0;
#X connect 210 0 59 0;
#X connect 210 0 69 0;
#X connect 210 1 63 0;
#X connect 210 2 223 0;
#X connect 210 3 221 0;
#X connect 210 4 229 0;
#X connect 210 5 227 0;
#X connect 210 6 235 0;
#X connect 210 7 233 0;
#X connect 210 8 108 0;
#X connect 212 0 210 2;
#X connect 213 0 210 3;
#X connect 214 0 210 4;
#X connect 215 0 210 5;
#X connect 216 0 210 6;
#X connect 217 0 210 7;
#X connect 220 0 219 0;
#X connect 221 0 220 0;
#X connect 222 0 218 0;
#X connect 223 0 222 0;
#X connect 226 0 225 0;
#X connect 227 0 226 0;
#X connect 228 0 224 0;
#X connect 229 0 228 0;
#X connect 232 0 231 0;
#X connect 233 0 232 0;
#X connect 234 0 230 0;
#X connect 235 0 234 0;
#X coords 0 -1 1 1 300 300 1 20 50;
