#N canvas 535 221 1257 819 12;
#X declare -path ..;
#X obj 29 27 inlet~;
#X obj 78 27 inlet~;
#X obj 632 9 inlet;
#N canvas 15 34 1772 842 reblock 0;
#X obj 43 34 inlet~ pad;
#X obj 42 61 *~ 32768;
#X obj 42 86 clip~ -32367 32767;
#X obj 42 111 /~ 256;
#X obj 74 149 wrap~;
#X obj 42 148 -~;
#X obj 41 279 +~;
#X obj 124 185 *~ 256;
#X obj 89 188 -~;
#X obj 41 251 lrshift~ -1;
#X obj 1628 79 bang~;
#X obj 112 513 lrshift~ 1;
#X obj 142 567 clip~ 0 1;
#X text 58 217 LSB;
#X text 125 251 MSB;
#X text 80 513 MSB;
#X obj 111 592 -~;
#X obj 142 592 *~ 256;
#X obj 142 542 -~ 127;
#X obj 42 567 /~ 32768;
#X obj 42 592 +~;
#X obj 41 673 outlet~;
#X obj 1635 105 s \$0-bangtilde;
#X obj 1500 220 r \$0-bangtilde;
#X obj 290 509 lrshift~ 1;
#X obj 320 563 clip~ 0 1;
#X obj 289 588 -~;
#X obj 320 588 *~ 256;
#X obj 320 538 -~ 127;
#X obj 220 565 /~ 32768;
#X obj 220 590 +~;
#X obj 219 672 outlet~;
#X obj 218 44 inlet~ pad;
#X obj 217 71 *~ 32768;
#X obj 217 96 clip~ -32367 32767;
#X obj 217 121 /~ 256;
#X obj 249 159 wrap~;
#X obj 217 158 -~;
#X obj 215 282 +~;
#X obj 299 195 *~ 256;
#X obj 264 198 -~;
#X obj 215 254 lrshift~ -1;
#X msg 76 339 start 0;
#X obj 40 375 tabwrite~ \$0-encodebuf;
#X obj 214 374 tabwrite~ \$0-encodebuf;
#X obj 111 617 /~ 128;
#X obj 289 613 /~ 128;
#X obj 1437 334 - 1;
#X obj 1501 250 v \$0-fifofill;
#X obj 1537 333 v \$0-fifowrite;
#X obj 1537 358 -;
#X obj 90 214 clip~ 0 255;
#X obj 265 226 clip~ 0 255;
#X obj 1614 271 spigot;
#X obj 1670 275 tgl 15 0 empty empty empty 17 7 0 10 #fcfcfc #000000
#000000 0 1;
#X obj 1614 296 text set poodle 1e+09;
#X text 57 544 LSB;
#X text 45 10 input audio to "encode" table to send to net;
#X obj 1430 667 tabread \$0-valid;
#X obj 1429 696 v \$0-packet-valid;
#X obj 1536 608 tabwrite \$0-valid;
#X obj 1537 581 0;
#X obj 1537 503 t b b f;
#X obj 1560 552 s \$0-report-stats;
#X obj 1548 433 s \$0-read-loc;
#X obj 43 446 r \$0-read-loc;
#X text 45 402 read incoming FIFO from net and "decode" to audio;
#X obj 1437 383 v \$0-fifofill;
#X obj 1443 85 r \$0-state;
#X obj 1443 111 expr $f1==1 || $f1==3 || $f1==5, f 16;
#X obj 1441 155 tgl 15 0 empty empty empty 17 7 0 10 #fcfcfc #000000
#000000 0 1;
#X obj 254 302 v \$0-block-size;
#X msg 254 350 start \$1;
#X obj 254 326 * 2;
#X obj 41 651 *~ 1;
#X obj 219 649 *~ 1;
#X obj 1437 358 max 0;
#X obj 1501 274 t f b f;
#X obj 1556 299 + 1;
#X obj 76 313 r \$0-do-encode;
#X obj 254 278 r \$0-do-encode;
#X obj 1660 161 / 64;
#X obj 1628 138 f;
#X obj 1628 163 + 1;
#X obj 1628 188 mod 1;
#X obj 1628 213 sel 0;
#X obj 1628 238 s \$0-do-encode;
#X obj 43 478 tabplay~ \$0-decodebuf1;
#X obj 220 471 tabplay~ \$0-decodebuf2;
#X obj 1567 383 r \$0-bufmod;
#X obj 1537 383 mod;
#X obj 1444 177 switch~ 128 1 2;
#X obj 1548 408 * 128;
#X obj 1630 656 sel 0 1;
#X obj 1630 686 f;
#X obj 1659 686 + 1;
#X obj 1630 712 v \$0-late-count;
#X obj 1691 656 0;
#X obj 1660 136 r \$0-block-size;
#X obj 381 43 inlet~ pad;
#X obj 380 70 *~ 32768;
#X obj 380 95 clip~ -32367 32767;
#X obj 380 120 /~ 256;
#X obj 412 158 wrap~;
#X obj 380 157 -~;
#X obj 378 281 +~;
#X obj 462 194 *~ 256;
#X obj 427 197 -~;
#X obj 378 253 lrshift~ -1;
#X obj 377 373 tabwrite~ \$0-encodebuf;
#X obj 428 225 clip~ 0 255;
#X obj 417 301 v \$0-block-size;
#X msg 417 349 start \$1;
#X obj 417 277 r \$0-do-encode;
#X obj 544 43 inlet~ pad;
#X obj 543 70 *~ 32768;
#X obj 543 95 clip~ -32367 32767;
#X obj 543 120 /~ 256;
#X obj 575 158 wrap~;
#X obj 543 157 -~;
#X obj 541 281 +~;
#X obj 625 194 *~ 256;
#X obj 590 197 -~;
#X obj 541 253 lrshift~ -1;
#X obj 540 373 tabwrite~ \$0-encodebuf;
#X obj 591 225 clip~ 0 255;
#X obj 580 301 v \$0-block-size;
#X msg 580 349 start \$1;
#X obj 580 277 r \$0-do-encode;
#X obj 707 42 inlet~ pad;
#X obj 706 69 *~ 32768;
#X obj 706 94 clip~ -32367 32767;
#X obj 706 119 /~ 256;
#X obj 738 157 wrap~;
#X obj 706 156 -~;
#X obj 704 280 +~;
#X obj 788 193 *~ 256;
#X obj 753 196 -~;
#X obj 704 252 lrshift~ -1;
#X obj 703 372 tabwrite~ \$0-encodebuf;
#X obj 754 224 clip~ 0 255;
#X obj 743 300 v \$0-block-size;
#X msg 743 348 start \$1;
#X obj 743 276 r \$0-do-encode;
#X obj 871 42 inlet~ pad;
#X obj 870 69 *~ 32768;
#X obj 870 94 clip~ -32367 32767;
#X obj 870 119 /~ 256;
#X obj 902 157 wrap~;
#X obj 870 156 -~;
#X obj 868 280 +~;
#X obj 952 193 *~ 256;
#X obj 917 196 -~;
#X obj 868 252 lrshift~ -1;
#X obj 867 372 tabwrite~ \$0-encodebuf;
#X obj 918 224 clip~ 0 255;
#X obj 907 300 v \$0-block-size;
#X msg 907 348 start \$1;
#X obj 907 276 r \$0-do-encode;
#X obj 1034 42 inlet~ pad;
#X obj 1033 69 *~ 32768;
#X obj 1033 94 clip~ -32367 32767;
#X obj 1033 119 /~ 256;
#X obj 1065 157 wrap~;
#X obj 1033 156 -~;
#X obj 1031 280 +~;
#X obj 1115 193 *~ 256;
#X obj 1080 196 -~;
#X obj 1031 252 lrshift~ -1;
#X obj 1030 372 tabwrite~ \$0-encodebuf;
#X obj 1081 224 clip~ 0 255;
#X obj 1070 300 v \$0-block-size;
#X msg 1070 348 start \$1;
#X obj 1070 276 r \$0-do-encode;
#X obj 1197 41 inlet~ pad;
#X obj 1196 68 *~ 32768;
#X obj 1196 93 clip~ -32367 32767;
#X obj 1196 118 /~ 256;
#X obj 1228 156 wrap~;
#X obj 1196 155 -~;
#X obj 1194 279 +~;
#X obj 1278 192 *~ 256;
#X obj 1243 195 -~;
#X obj 1194 251 lrshift~ -1;
#X obj 1193 371 tabwrite~ \$0-encodebuf;
#X obj 1244 223 clip~ 0 255;
#X obj 1233 299 v \$0-block-size;
#X msg 1233 347 start \$1;
#X obj 1233 275 r \$0-do-encode;
#X obj 451 505 lrshift~ 1;
#X obj 481 559 clip~ 0 1;
#X text 419 505 MSB;
#X obj 450 584 -~;
#X obj 481 584 *~ 256;
#X obj 481 534 -~ 127;
#X obj 381 559 /~ 32768;
#X obj 381 584 +~;
#X obj 380 665 outlet~;
#X obj 629 501 lrshift~ 1;
#X obj 659 555 clip~ 0 1;
#X obj 628 580 -~;
#X obj 659 580 *~ 256;
#X obj 659 530 -~ 127;
#X obj 559 557 /~ 32768;
#X obj 559 582 +~;
#X obj 558 664 outlet~;
#X obj 450 609 /~ 128;
#X obj 628 605 /~ 128;
#X text 396 536 LSB;
#X obj 380 643 *~ 1;
#X obj 558 641 *~ 1;
#X obj 805 497 lrshift~ 1;
#X obj 835 551 clip~ 0 1;
#X text 773 497 MSB;
#X obj 804 576 -~;
#X obj 835 576 *~ 256;
#X obj 835 526 -~ 127;
#X obj 735 551 /~ 32768;
#X obj 735 576 +~;
#X obj 734 657 outlet~;
#X obj 983 493 lrshift~ 1;
#X obj 1013 547 clip~ 0 1;
#X obj 982 572 -~;
#X obj 1013 572 *~ 256;
#X obj 1013 522 -~ 127;
#X obj 913 549 /~ 32768;
#X obj 913 574 +~;
#X obj 912 656 outlet~;
#X obj 804 601 /~ 128;
#X obj 982 597 /~ 128;
#X text 750 528 LSB;
#X obj 734 635 *~ 1;
#X obj 912 633 *~ 1;
#X obj 1164 493 lrshift~ 1;
#X obj 1194 547 clip~ 0 1;
#X text 1132 493 MSB;
#X obj 1163 572 -~;
#X obj 1194 572 *~ 256;
#X obj 1194 522 -~ 127;
#X obj 1094 547 /~ 32768;
#X obj 1093 653 outlet~;
#X obj 1342 489 lrshift~ 1;
#X obj 1372 543 clip~ 0 1;
#X obj 1341 568 -~;
#X obj 1372 568 *~ 256;
#X obj 1372 518 -~ 127;
#X obj 1272 545 /~ 32768;
#X obj 1272 570 +~;
#X obj 1271 652 outlet~;
#X obj 1163 597 /~ 128;
#X obj 1341 593 /~ 128;
#X text 1109 524 LSB;
#X obj 1271 629 *~ 1;
#X obj 1094 570 +~;
#X obj 1093 631 *~ 1;
#X obj 382 470 tabplay~ \$0-decodebuf3;
#X obj 559 463 tabplay~ \$0-decodebuf4;
#X obj 1272 451 tabplay~ \$0-decodebuf8;
#X obj 736 462 tabplay~ \$0-decodebuf5;
#X obj 913 455 tabplay~ \$0-decodebuf6;
#X obj 1095 458 tabplay~ \$0-decodebuf7;
#X obj 321 739 snapshot~;
#X obj 342 695 tgl 15 0 empty empty empty 17 7 0 10 #fcfcfc #000000
#000000 0 1;
#X obj 342 715 metro 100;
#X floatatom 321 763 5 0 0 0 - - - 0;
#X obj 417 325 * 4;
#X obj 580 325 * 6;
#X obj 743 324 * 8;
#X obj 907 324 * 10;
#X obj 1070 324 * 12;
#X obj 1233 323 * 14;
#X connect 0 0 1 0;
#X connect 1 0 2 0;
#X connect 2 0 3 0;
#X connect 2 0 8 0;
#X connect 3 0 4 0;
#X connect 3 0 5 0;
#X connect 4 0 5 1;
#X connect 5 0 7 0;
#X connect 5 0 9 0;
#X connect 6 0 43 0;
#X connect 7 0 8 1;
#X connect 8 0 51 0;
#X connect 9 0 6 0;
#X connect 10 0 22 0;
#X connect 10 0 82 0;
#X connect 11 0 18 0;
#X connect 11 0 16 0;
#X connect 12 0 17 0;
#X connect 16 0 45 0;
#X connect 17 0 16 1;
#X connect 18 0 12 0;
#X connect 19 0 20 0;
#X connect 20 0 74 0;
#X connect 23 0 48 0;
#X connect 24 0 28 0;
#X connect 24 0 26 0;
#X connect 25 0 27 0;
#X connect 26 0 46 0;
#X connect 27 0 26 1;
#X connect 28 0 25 0;
#X connect 29 0 30 0;
#X connect 30 0 75 0;
#X connect 32 0 33 0;
#X connect 33 0 34 0;
#X connect 34 0 35 0;
#X connect 34 0 40 0;
#X connect 35 0 36 0;
#X connect 35 0 37 0;
#X connect 36 0 37 1;
#X connect 37 0 39 0;
#X connect 37 0 41 0;
#X connect 38 0 44 0;
#X connect 39 0 40 1;
#X connect 40 0 52 0;
#X connect 41 0 38 0;
#X connect 42 0 43 0;
#X connect 45 0 20 1;
#X connect 46 0 30 1;
#X connect 47 0 76 0;
#X connect 48 0 53 0;
#X connect 48 0 77 0;
#X connect 49 0 50 0;
#X connect 50 0 90 0;
#X connect 51 0 6 1;
#X connect 52 0 38 1;
#X connect 53 0 55 0;
#X connect 54 0 53 1;
#X connect 58 0 59 0;
#X connect 58 0 74 1;
#X connect 58 0 75 1;
#X connect 58 0 93 0;
#X connect 58 0 209 1;
#X connect 58 0 210 1;
#X connect 58 0 231 1;
#X connect 58 0 232 1;
#X connect 58 0 254 1;
#X connect 58 0 252 1;
#X connect 61 0 60 0;
#X connect 62 0 61 0;
#X connect 62 1 63 0;
#X connect 62 2 60 1;
#X connect 62 2 58 0;
#X connect 65 0 87 0;
#X connect 65 0 88 0;
#X connect 65 0 255 0;
#X connect 65 0 256 0;
#X connect 65 0 258 0;
#X connect 65 0 259 0;
#X connect 65 0 260 0;
#X connect 65 0 257 0;
#X connect 68 0 69 0;
#X connect 69 0 70 0;
#X connect 70 0 91 0;
#X connect 71 0 73 0;
#X connect 72 0 44 0;
#X connect 73 0 72 0;
#X connect 74 0 21 0;
#X connect 75 0 31 0;
#X connect 76 0 67 0;
#X connect 77 0 47 0;
#X connect 77 1 49 0;
#X connect 77 2 78 0;
#X connect 78 0 50 1;
#X connect 79 0 42 0;
#X connect 80 0 71 0;
#X connect 81 0 84 1;
#X connect 82 0 83 0;
#X connect 83 0 84 0;
#X connect 84 0 82 1;
#X connect 84 0 85 0;
#X connect 85 0 86 0;
#X connect 87 0 11 0;
#X connect 87 0 19 0;
#X connect 88 0 24 0;
#X connect 88 0 29 0;
#X connect 89 0 90 1;
#X connect 90 0 62 0;
#X connect 90 0 92 0;
#X connect 92 0 64 0;
#X connect 93 0 94 0;
#X connect 93 1 97 0;
#X connect 94 0 95 0;
#X connect 94 0 96 0;
#X connect 95 0 94 1;
#X connect 97 0 94 0;
#X connect 98 0 81 0;
#X connect 99 0 100 0;
#X connect 100 0 101 0;
#X connect 101 0 102 0;
#X connect 101 0 107 0;
#X connect 102 0 103 0;
#X connect 102 0 104 0;
#X connect 103 0 104 1;
#X connect 104 0 106 0;
#X connect 104 0 108 0;
#X connect 105 0 109 0;
#X connect 106 0 107 1;
#X connect 107 0 110 0;
#X connect 108 0 105 0;
#X connect 110 0 105 1;
#X connect 111 0 265 0;
#X connect 112 0 109 0;
#X connect 113 0 111 0;
#X connect 114 0 115 0;
#X connect 115 0 116 0;
#X connect 116 0 117 0;
#X connect 116 0 122 0;
#X connect 117 0 118 0;
#X connect 117 0 119 0;
#X connect 118 0 119 1;
#X connect 119 0 121 0;
#X connect 119 0 123 0;
#X connect 120 0 124 0;
#X connect 121 0 122 1;
#X connect 122 0 125 0;
#X connect 123 0 120 0;
#X connect 125 0 120 1;
#X connect 126 0 266 0;
#X connect 127 0 124 0;
#X connect 128 0 126 0;
#X connect 129 0 130 0;
#X connect 130 0 131 0;
#X connect 131 0 132 0;
#X connect 131 0 137 0;
#X connect 132 0 133 0;
#X connect 132 0 134 0;
#X connect 133 0 134 1;
#X connect 134 0 136 0;
#X connect 134 0 138 0;
#X connect 135 0 139 0;
#X connect 136 0 137 1;
#X connect 137 0 140 0;
#X connect 138 0 135 0;
#X connect 140 0 135 1;
#X connect 141 0 267 0;
#X connect 142 0 139 0;
#X connect 143 0 141 0;
#X connect 144 0 145 0;
#X connect 145 0 146 0;
#X connect 146 0 147 0;
#X connect 146 0 152 0;
#X connect 147 0 148 0;
#X connect 147 0 149 0;
#X connect 148 0 149 1;
#X connect 149 0 151 0;
#X connect 149 0 153 0;
#X connect 150 0 154 0;
#X connect 151 0 152 1;
#X connect 152 0 155 0;
#X connect 153 0 150 0;
#X connect 155 0 150 1;
#X connect 156 0 268 0;
#X connect 157 0 154 0;
#X connect 158 0 156 0;
#X connect 159 0 160 0;
#X connect 160 0 161 0;
#X connect 161 0 162 0;
#X connect 161 0 167 0;
#X connect 162 0 163 0;
#X connect 162 0 164 0;
#X connect 163 0 164 1;
#X connect 164 0 166 0;
#X connect 164 0 168 0;
#X connect 165 0 169 0;
#X connect 166 0 167 1;
#X connect 167 0 170 0;
#X connect 168 0 165 0;
#X connect 170 0 165 1;
#X connect 171 0 269 0;
#X connect 172 0 169 0;
#X connect 173 0 171 0;
#X connect 174 0 175 0;
#X connect 175 0 176 0;
#X connect 176 0 177 0;
#X connect 176 0 182 0;
#X connect 177 0 178 0;
#X connect 177 0 179 0;
#X connect 178 0 179 1;
#X connect 179 0 181 0;
#X connect 179 0 183 0;
#X connect 180 0 184 0;
#X connect 181 0 182 1;
#X connect 182 0 185 0;
#X connect 183 0 180 0;
#X connect 185 0 180 1;
#X connect 186 0 270 0;
#X connect 187 0 184 0;
#X connect 188 0 186 0;
#X connect 189 0 194 0;
#X connect 189 0 192 0;
#X connect 190 0 193 0;
#X connect 192 0 206 0;
#X connect 193 0 192 1;
#X connect 194 0 190 0;
#X connect 195 0 196 0;
#X connect 196 0 209 0;
#X connect 198 0 202 0;
#X connect 198 0 200 0;
#X connect 199 0 201 0;
#X connect 200 0 207 0;
#X connect 201 0 200 1;
#X connect 202 0 199 0;
#X connect 203 0 204 0;
#X connect 204 0 210 0;
#X connect 206 0 196 1;
#X connect 207 0 204 1;
#X connect 209 0 197 0;
#X connect 210 0 205 0;
#X connect 211 0 216 0;
#X connect 211 0 214 0;
#X connect 212 0 215 0;
#X connect 214 0 228 0;
#X connect 215 0 214 1;
#X connect 216 0 212 0;
#X connect 217 0 218 0;
#X connect 218 0 231 0;
#X connect 220 0 224 0;
#X connect 220 0 222 0;
#X connect 221 0 223 0;
#X connect 222 0 229 0;
#X connect 223 0 222 1;
#X connect 224 0 221 0;
#X connect 225 0 226 0;
#X connect 226 0 232 0;
#X connect 228 0 218 1;
#X connect 229 0 226 1;
#X connect 231 0 219 0;
#X connect 232 0 227 0;
#X connect 233 0 238 0;
#X connect 233 0 236 0;
#X connect 234 0 237 0;
#X connect 236 0 249 0;
#X connect 237 0 236 1;
#X connect 238 0 234 0;
#X connect 239 0 253 0;
#X connect 241 0 245 0;
#X connect 241 0 243 0;
#X connect 242 0 244 0;
#X connect 243 0 250 0;
#X connect 244 0 243 1;
#X connect 245 0 242 0;
#X connect 246 0 247 0;
#X connect 247 0 252 0;
#X connect 249 0 253 1;
#X connect 250 0 247 1;
#X connect 252 0 248 0;
#X connect 253 0 254 0;
#X connect 254 0 240 0;
#X connect 255 0 189 0;
#X connect 255 0 195 0;
#X connect 256 0 198 0;
#X connect 256 0 203 0;
#X connect 257 0 241 0;
#X connect 257 0 246 0;
#X connect 258 0 211 0;
#X connect 258 0 217 0;
#X connect 259 0 220 0;
#X connect 259 0 225 0;
#X connect 260 0 233 0;
#X connect 260 0 239 0;
#X connect 261 0 264 0;
#X connect 262 0 263 0;
#X connect 263 0 261 0;
#X connect 265 0 112 0;
#X connect 266 0 127 0;
#X connect 267 0 142 0;
#X connect 268 0 157 0;
#X connect 269 0 172 0;
#X connect 270 0 187 0;
#X restore 28 54 pd reblock;
#X f 52;
#X obj 78 162 spigot;
#X obj 41 139 tgl 15 0 empty empty empty 17 7 0 10 #fcfcfc #000000
#000000 0 1;
#X obj 681 67 t f b;
#X obj 632 68 t a b;
#X obj 29 81 outlet~;
#X obj 31 269 sel 0;
#X obj 31 295 del 3000;
#X obj 84 81 outlet~;
#X obj 1065 14 loadbang;
#X obj 813 99 s \$0-nbuf;
#X obj 885 99 s \$0-nchan;
#X msg 1065 39 2;
#N canvas 1059 122 764 647 format-send-msg 0;
#X obj 145 472 list trim;
#X obj 156 387 array get \$0-encodebuf;
#X obj 145 415 list prepend send 0 0 0 0 0 0 0 0 0 0 0 1 2 16 2 2,
f 18;
#X obj 193 48 v \$0-nchan;
#X obj 74 82 f;
#X obj 74 132 mod 1000;
#X obj 74 107 + 1;
#X obj 74 157 sel 0;
#X obj 536 287 samplerate~;
#X msg 341 447 list send 0 0 0 0 0 0 0 0 \$1 \$2 \$3 \$4 \$5 16 2 2
;
#X obj 341 418 pack 0 0 0 0 0;
#X obj 341 282 f;
#X obj 341 307 + 1;
#X obj 341 332 & 65535;
#X obj 341 357 t f f;
#X obj 341 384 & 255;
#X obj 536 312 > 44100;
#X obj 536 337 + 2;
#X obj 423 314 t f f;
#X obj 423 341 & 255;
#X text 424 233 blocksize in samples, f 10;
#X text 531 243 sample rate (44100 or 48000 only), f 18;
#X obj 383 386 >> 8;
#X obj 465 343 >> 8;
#X obj 213 526 spigot;
#X obj 253 499 tgl 15 0 empty empty empty 17 7 0 10 #fcfcfc #000000
#000000 0 1;
#X obj 236 557 b;
#X obj 236 582 del 1;
#X msg 229 608 0;
#X obj 59 548 s \$0-packet-out;
#X obj 157 230 spigot;
#X obj 217 228 r \$0-repeat;
#X obj 220 260 tgl 15 0 empty empty empty 17 7 0 10 #fcfcfc #000000
#000000 0 1;
#X obj 285 51 r \$0-block-size;
#X obj 285 76 * 2;
#X obj 191 73 sel 0;
#X obj 209 123 *;
#X text 242 123 bytes to send;
#X text 217 287 ??? no idea what to do, f 12;
#X obj 422 286 v \$0-block-size;
#X text 326 242 packet count;
#X obj 194 20 r \$0-do-encode;
#X floatatom 338 101 5 0 0 0 - - - 0;
#X obj 157 288 del 0;
#X obj 373 497 list length;
#X obj 373 522 - 1;
#X obj 373 547 s \$0-add-bytes-out;
#X obj 351 169 t b b;
#X obj 209 152 t b f b;
#X obj 74 182 t b b;
#X text 35 208 if number of channels is zero \, send keep-alive messages
, f 13;
#X floatatom 152 125 5 0 0 0 - - - 0;
#X connect 0 0 24 0;
#X connect 0 0 29 0;
#X connect 1 0 2 0;
#X connect 2 0 0 0;
#X connect 2 0 44 0;
#X connect 3 0 35 0;
#X connect 4 0 6 0;
#X connect 5 0 4 1;
#X connect 5 0 7 0;
#X connect 6 0 5 0;
#X connect 7 0 49 0;
#X connect 8 0 16 0;
#X connect 9 0 2 1;
#X connect 10 0 9 0;
#X connect 11 0 12 0;
#X connect 12 0 13 0;
#X connect 13 0 11 1;
#X connect 13 0 14 0;
#X connect 14 0 15 0;
#X connect 14 1 22 0;
#X connect 15 0 10 0;
#X connect 16 0 17 0;
#X connect 17 0 10 4;
#X connect 18 0 19 0;
#X connect 18 1 23 0;
#X connect 19 0 10 2;
#X connect 22 0 10 1;
#X connect 23 0 10 3;
#X connect 24 0 26 0;
#X connect 25 0 24 1;
#X connect 26 0 27 0;
#X connect 27 0 28 0;
#X connect 28 0 25 0;
#X connect 30 0 43 0;
#X connect 31 0 32 0;
#X connect 32 0 30 1;
#X connect 33 0 34 0;
#X connect 34 0 36 1;
#X connect 34 0 42 0;
#X connect 35 0 4 0;
#X connect 35 1 36 0;
#X connect 35 1 51 0;
#X connect 36 0 48 0;
#X connect 39 0 18 0;
#X connect 41 0 3 0;
#X connect 43 0 1 0;
#X connect 44 0 45 0;
#X connect 45 0 46 0;
#X connect 47 0 11 0;
#X connect 47 1 39 0;
#X connect 47 1 8 0;
#X connect 48 0 1 0;
#X connect 48 0 30 0;
#X connect 48 1 1 1;
#X connect 48 2 47 0;
#X connect 49 0 2 0;
#X connect 49 1 47 0;
#X restore 464 24 pd format-send-msg;
#N canvas 1280 333 587 489 test-packets 0;
#X obj 87 387 outlet;
#X obj 93 194 text get poodle;
#X obj 286 94 text size poodle;
#X floatatom 301 49 5 0 0 0 - - - 0;
#X floatatom 286 119 5 0 0 0 - - - 0;
#X obj 95 38 r \$0-bangtilde;
#X obj 95 63 f;
#X obj 95 88 + 1;
#X obj 272 56 bng 15 250 50 0 empty empty empty 17 7 0 10 #fcfcfc #000000
#000000;
#X obj 95 113 mod 1480;
#X obj 95 138 spigot;
#X obj 150 144 tgl 15 0 empty empty empty 17 7 0 10 #fcfcfc #000000
#000000 0 1;
#X connect 2 0 4 0;
#X connect 3 0 2 0;
#X connect 5 0 6 0;
#X connect 6 0 7 0;
#X connect 7 0 9 0;
#X connect 8 0 2 0;
#X connect 9 0 6 1;
#X connect 9 0 10 0;
#X connect 10 0 1 0;
#X connect 11 0 10 1;
#X restore 483 73 pd test-packets;
#X obj 78 231 netsend -u -b;
#X msg 769 125 0;
#X obj 769 150 s \$0-state;
#X text 968 212 states;
#X text 969 235 0 off;
#X text 969 273 2 server waiting for client;
#X text 968 295 3 server with connection;
#X obj 87 186 r \$0-to-netsend;
#X obj 31 320 v \$0-state;
#X obj 51 401 s \$0-restart-server;
#X obj 32 426 s \$0-do-start-client;
#X obj 120 305 v \$0-state;
#X obj 120 330 sel 3;
#X obj 120 278 b;
#X obj 180 239 bng 15 250 50 0 empty empty empty 17 7 0 10 #fcfcfc
#000000 #000000;
#X obj 14 226 bng 15 250 50 0 empty empty empty 17 7 0 10 #fcfcfc #000000
#000000;
#X obj 904 719 outlet;
#X obj 917 692 r \$0-status;
#X text 714 285 start client. Args are host name/addr and port, f
20;
#X obj 31 345 sel 1 3 5;
#X obj 71 376 s \$0-restart-peer;
#X obj 730 67 t a b;
#X obj 14 202 b;
#X obj 105 212 bng 15 250 50 0 empty empty empty 17 7 0 10 #fcfcfc
#000000 #000000;
#X obj 10 270 bng 15 250 50 0 empty empty empty 17 7 0 10 #fcfcfc #000000
#000000;
#X obj 478 49 r \$0-packet-in;
#X obj 166 274 s \$0-packet-in;
#X obj 78 131 r \$0-packet-out;
#X obj 962 100 s \$0-repeat;
#N canvas 858 159 575 701 server 0;
#X floatatom 94 276 5 0 0 0 - - - 0;
#X msg 234 299 0;
#X msg 94 300 listen \$1;
#X obj 94 329 netreceive -u -b -f;
#X msg 161 172 2;
#X obj 161 197 s \$0-state;
#X obj 89 127 r \$0-restart-server;
#X obj 341 395 v \$0-port;
#X obj 347 470 v \$0-rtnport;
#X obj 241 479 s \$0-state;
#X msg 241 454 3;
#X obj 255 428 s \$0-host;
#X obj 232 225 r \$0-state;
#X obj 233 249 != 2;
#X obj 233 274 sel 1;
#X obj 298 361 print from-netreceive;
#X obj 224 360 t b b l b;
#X obj 255 398 unpack s 0;
#X msg 241 169 symbol -;
#X obj 111 221 v \$0-listenport;
#X obj 347 446 v \$0-listenport;
#X obj 347 421 b;
#X obj 92 192 t f f b;
#X text 96 71 start server - arg is port to listen for, f 14;
#X obj 89 152 v \$0-listenport;
#X obj 94 358 s \$0-packet-in;
#X obj 27 146 inlet;
#X obj 241 195 s \$0-host;
#X obj 127 646 s \$0-to-netsend;
#X obj 127 556 v \$0-port;
#X obj 276 556 v \$0-rtnport;
#X obj 202 556 r \$0-host;
#X obj 127 593 pack 0 s 0;
#X obj 127 528 t b b;
#X msg 127 621 disconnect \, connect \$2 \$1 \$3;
#X connect 0 0 2 0;
#X connect 1 0 0 0;
#X connect 2 0 3 0;
#X connect 3 0 25 0;
#X connect 3 1 16 0;
#X connect 4 0 5 0;
#X connect 6 0 24 0;
#X connect 10 0 9 0;
#X connect 12 0 13 0;
#X connect 13 0 14 0;
#X connect 14 0 1 0;
#X connect 16 0 33 0;
#X connect 16 1 10 0;
#X connect 16 2 17 0;
#X connect 17 0 11 0;
#X connect 17 1 7 0;
#X connect 17 1 21 0;
#X connect 18 0 27 0;
#X connect 20 0 8 0;
#X connect 21 0 20 0;
#X connect 22 0 0 0;
#X connect 22 1 19 0;
#X connect 22 2 4 0;
#X connect 22 2 18 0;
#X connect 24 0 22 0;
#X connect 26 0 22 0;
#X connect 29 0 32 0;
#X connect 30 0 32 2;
#X connect 31 0 32 1;
#X connect 32 0 34 0;
#X connect 33 0 29 0;
#X connect 33 1 30 0;
#X connect 34 0 28 0;
#X restore 659 254 pd server;
#N canvas 706 157 547 589 peer 0;
#X obj 154 71 inlet;
#X obj 138 208 s \$0-state;
#X msg 138 183 4;
#X obj 117 402 s \$0-packet-in;
#X obj 118 262 r \$0-packet-out;
#X obj 117 294 spigot;
#X obj 393 371 route running;
#X obj 261 257 sel 1;
#X obj 174 297 tgl 15 0 empty empty empty 17 7 0 10 #fcfcfc #000000
#000000 0 1;
#X obj 261 287 del 500;
#X obj 132 321 b;
#X msg 261 312 0;
#X obj 89 339 bng 15 250 50 0 empty empty empty 17 7 0 10 #fcfcfc #000000
#000000;
#X obj 117 375 conniption-client -b;
#X msg 406 324 stop;
#X obj 231 188 list;
#X msg 231 214 stop \, server \$1 \, port \$2 \, start \$3;
#X obj 258 405 s \$0-status;
#X obj 395 409 sel 0 1;
#X msg 440 439 5;
#X obj 390 502 s \$0-state;
#X msg 359 469 4;
#X obj 435 245 r \$0-state;
#X obj 405 300 sel 0;
#X obj 359 439 spigot;
#X obj 462 301 == 5;
#X obj 435 270 t f f;
#X obj 209 153 t b a;
#X connect 0 0 27 0;
#X connect 2 0 1 0;
#X connect 4 0 5 0;
#X connect 5 0 10 0;
#X connect 5 0 13 0;
#X connect 6 0 8 0;
#X connect 6 0 7 0;
#X connect 6 0 18 0;
#X connect 7 0 9 0;
#X connect 8 0 5 1;
#X connect 9 0 11 0;
#X connect 10 0 9 0;
#X connect 10 0 12 0;
#X connect 11 0 13 0;
#X connect 13 0 3 0;
#X connect 13 1 6 0;
#X connect 13 1 17 0;
#X connect 14 0 13 1;
#X connect 15 0 16 0;
#X connect 16 0 13 1;
#X connect 18 0 24 0;
#X connect 18 1 19 0;
#X connect 19 0 20 0;
#X connect 21 0 20 0;
#X connect 22 0 26 0;
#X connect 23 0 14 0;
#X connect 24 0 21 0;
#X connect 25 0 24 1;
#X connect 26 0 23 0;
#X connect 26 1 25 0;
#X connect 27 0 2 0;
#X connect 27 1 15 0;
#X restore 686 208 pd peer;
#X text 745 177 connect to peer. Args are connection server name/addr
\, port \, and connection name, f 29;
#N canvas 129 212 552 608 client 0;
#X obj 44 46 inlet;
#X obj 65 137 list;
#X msg 123 97 1;
#X obj 51 107 t b a b;
#X obj 123 127 s \$0-state;
#X obj 53 251 s \$0-do-start-client;
#X obj 66 164 unpack s 0;
#X obj 146 167 v \$0-port;
#X obj 142 221 v \$0-rtnport;
#X obj 65 196 s \$0-host;
#X obj 54 308 r \$0-do-start-client;
#X msg 142 195 -1;
#X obj 54 362 v \$0-rtnport;
#X obj 54 333 b;
#X obj 54 387 sel -1;
#X obj 54 506 s \$0-to-netsend;
#X obj 54 416 v \$0-port;
#X obj 129 416 r \$0-host;
#X obj 54 453 pack 0 s;
#X msg 54 481 disconnect \, connect \$2 \$1;
#X connect 0 0 3 0;
#X connect 1 0 6 0;
#X connect 2 0 4 0;
#X connect 3 0 5 0;
#X connect 3 1 1 0;
#X connect 3 2 2 0;
#X connect 6 0 9 0;
#X connect 6 1 7 0;
#X connect 6 1 11 0;
#X connect 10 0 13 0;
#X connect 11 0 8 0;
#X connect 12 0 14 0;
#X connect 13 0 12 0;
#X connect 14 0 16 0;
#X connect 16 0 18 0;
#X connect 17 0 18 1;
#X connect 18 0 19 0;
#X connect 19 0 15 0;
#X restore 633 295 pd client;
#X text 734 230 start server - arg is port to listen for, f 14;
#X text 968 252 1 client with known server addr;
#N canvas 552 25 1511 1067 in-packet-fifo 0;
#X obj 26 578 v \$0-fifowrite;
#X obj 26 603 + 1;
#X obj 26 653 v \$0-fifowrite;
#X obj 27 419 + 1;
#X obj 379 200 list split 16;
#X obj 695 458 list length;
#X obj 695 483 t f b;
#X obj 695 510 -;
#X obj 723 510 f;
#X obj 695 535 < 0;
#X obj 695 560 sel 1;
#X obj 73 116 del 1000;
#X obj 312 24 inlet;
#X msg 695 589 const 0;
#X obj 523 474 v \$0-fifowrite;
#X obj 747 562 bng 15 250 50 0 empty empty empty 17 7 0 10 #fcfcfc
#000000 #000000;
#X obj 94 422 r \$0-nbuf;
#X obj 59 549 v \$0-fifofill;
#X obj 27 392 v \$0-fifofill;
#X obj 312 50 t b l l;
#X obj 72 172 s \$0-decodebuf;
#X msg 72 147 const 0;
#X obj 611 133 f;
#X obj 582 134 -;
#X obj 582 159 & 65535;
#X text 439 150 increment in packet # since last packet, f 19;
#X obj 582 189 moses 2;
#X obj 325 168 spigot;
#X obj 325 194 t b l;
#X obj 693 276 min;
#X obj 694 301 until;
#X obj 834 330 v \$0-fifowrite;
#X obj 694 326 t b b;
#X obj 521 440 t l b l;
#X obj 363 112 loadbang;
#X msg 363 137 1;
#X obj 583 75 spigot;
#X obj 583 103 t f b f;
#X obj 630 48 sel 0;
#X msg 636 74 1;
#X obj 583 47 t f f;
#X text 680 66 if we ever see a nonzero packet \, enable packet count
checking, f 23;
#X obj 587 305 s \$0-status;
#X msg 587 280 miss \$1;
#X obj 42 496 s \$0-status;
#X obj 189 171 s \$0-got-packet;
#X msg 42 472 drop;
#X obj 536 528 tabwrite \$0-valid;
#X msg 536 502 1 \$1;
#X text 594 24 packet counter;
#X text 707 639 if incoming block size or nchans drops \, clear FIFO
, f 25;
#N canvas 210 189 584 393 parse-header 0;
#X obj 104 43 inlet;
#X obj 82 166 spigot;
#X obj 82 191 print;
#X obj 120 139 tgl 15 0 empty empty empty 17 7 0 10 #fcfcfc #000000
#000000 0 1;
#X obj 468 159 sel 2 3;
#X obj 428 192 44100;
#X obj 476 196 48000;
#X msg 526 194 -1;
#X obj 431 224 v \$0-packet-sr;
#X obj 176 81 unpack 0 0 0 0 0 0 0 0 0 0 0 0 0 0 0 0;
#X obj 144 189 outlet;
#X obj 145 163 expr $f1 + 256*$f2;
#X text 146 224 packet count;
#X obj 281 166 expr $f1 + 256*$f2;
#X obj 282 194 s \$0-in-bufsize;
#X obj 294 228 div 64;
#X floatatom 301 306 5 0 0 0 - - - 0;
#X obj 294 253 s \$0-overblock;
#X obj 116 271 list length;
#X obj 116 296 s \$0-add-bytes-in;
#X connect 0 0 1 0;
#X connect 0 0 9 0;
#X connect 0 0 18 0;
#X connect 1 0 2 0;
#X connect 3 0 1 1;
#X connect 4 0 5 0;
#X connect 4 1 6 0;
#X connect 4 2 7 0;
#X connect 5 0 8 0;
#X connect 6 0 8 0;
#X connect 7 0 8 0;
#X connect 9 8 11 0;
#X connect 9 9 11 1;
#X connect 9 10 13 0;
#X connect 9 11 13 1;
#X connect 9 12 4 0;
#X connect 11 0 10 0;
#X connect 13 0 14 0;
#X connect 13 0 15 0;
#X connect 15 0 16 0;
#X connect 15 0 17 0;
#X connect 18 0 19 0;
#X restore 463 20 pd parse-header;
#X obj 932 616 s \$0-valid;
#N canvas 897 160 450 300 debugging 0;
#X obj 72 37 f;
#X obj 72 62 + 1;
#X obj 72 87 mod 100;
#X obj 72 112 sel 0;
#X obj 72 141 bng 15 250 50 0 empty empty empty 17 7 0 10 #fcfcfc #000000
#000000;
#X obj 72 8 inlet;
#X obj 174 57 spigot;
#X obj 214 30 tgl 15 0 empty empty empty 17 7 0 10 #fcfcfc #000000
#000000 0 1;
#X obj 197 88 b;
#X obj 197 113 del 1;
#X msg 190 139 0;
#X obj 154 127 print;
#X text 196 8 print one packet;
#X connect 0 0 1 0;
#X connect 1 0 2 0;
#X connect 2 0 0 1;
#X connect 2 0 3 0;
#X connect 3 0 4 0;
#X connect 5 0 0 0;
#X connect 5 0 6 0;
#X connect 6 0 8 0;
#X connect 6 0 11 0;
#X connect 7 0 6 1;
#X connect 8 0 9 0;
#X connect 9 0 10 0;
#X connect 10 0 7 0;
#X restore 359 74 pd debugging;
#X obj 248 771 list split;
#N canvas 447 153 746 195 debugging 0;
#X obj 88 73 inlet;
#X obj 51 143 text set poodle 1e+09;
#X obj 51 117 spigot;
#X obj 108 115 tgl 15 0 empty empty empty 17 7 0 10 #fcfcfc #000000
#000000 0 1;
#X obj 402 80 spigot;
#X obj 501 62 tgl 15 0 empty empty empty 17 7 0 10 #fcfcfc #000000
#000000 0 1;
#X obj 425 111 b;
#X obj 425 136 del 1;
#X msg 418 162 0;
#X obj 382 150 print;
#X text 424 31 print one packet;
#X obj 276 49 inlet;
#X connect 0 0 2 0;
#X connect 2 0 1 0;
#X connect 3 0 2 1;
#X connect 4 0 6 0;
#X connect 4 0 9 0;
#X connect 5 0 4 1;
#X connect 6 0 7 0;
#X connect 7 0 8 0;
#X connect 8 0 5 0;
#X connect 11 0 4 0;
#X restore 261 618 pd debugging;
#X obj 828 470 v \$0-in-bufsize;
#X obj 819 546 v \$0-in-chans;
#X obj 819 522 expr floor($f1/(2*$f2));
#X obj 94 447 - 2;
#X obj 27 448 moses;
#X obj 27 525 t b f;
#X obj 694 392 array set \$0-decodebuf1;
#X obj 695 614 s \$0-decodebuf1;
#X obj 814 617 s \$0-decodebuf2;
#X obj 426 616 r \$0-in-bufsize;
#X obj 45 968 array set \$0-decodebuf1, f 15;
#X obj 343 771 list split;
#X obj 187 970 array set \$0-decodebuf2, f 14;
#X obj 711 418 array set \$0-decodebuf2;
#X obj 833 360 * 64;
#X obj 26 212 array define \$0-sorry 64;
#X obj 694 360 array get \$0-sorry;
#X obj 262 281 until;
#X obj 265 225 v \$0-overblock;
#X obj 261 307 1;
#X obj 29 361 t b f;
#X obj 655 334 0;
#X obj 167 671 tabwrite \$0-valid;
#X obj 166 644 pack;
#X obj 167 618 swap;
#X obj 26 628 mod;
#X obj 203 399 r \$0-nbuf;
#X obj 203 424 + 3;
#X obj 203 449 div 4;
#X obj 203 474 * 4;
#X obj 203 499 s \$0-bufmod;
#X obj 56 628 r \$0-bufmod;
#X obj 722 276 r \$0-bufmod;
#X text 810 273 up to bufmod;
#X obj 1089 822 * 128;
#N canvas 532 254 773 723 debugging 0;
#X obj 88 73 inlet;
#X obj 51 143 text set poodle 1e+09;
#X obj 51 117 spigot;
#X obj 108 115 tgl 15 0 empty empty empty 17 7 0 10 #fcfcfc #000000
#000000 0 1;
#X connect 0 0 2 0;
#X connect 2 0 1 0;
#X connect 3 0 2 1;
#X restore 1149 876 pd debugging;
#X obj 330 258 v \$0-fifowrite;
#X obj 262 251 t f b f;
#X obj 330 283 div;
#X obj 330 308 *;
#X obj 329 332 v \$0-fifowrite;
#X obj 693 165 - 1;
#X text 729 152 supply (delta-1) packets of zeros, f 16;
#X obj 751 247 *;
#X obj 693 190 t f b;
#X obj 737 192 v \$0-late-count;
#X obj 693 217 -;
#X obj 693 244 moses 0;
#X obj 737 217 / 1;
#X obj 769 217 r over-block;
#X obj 27 241 array define \$0-valid 400;
#X obj 326 971 array set \$0-decodebuf3, f 14;
#X obj 447 974 array set \$0-decodebuf4, f 15;
#X obj 574 976 array set \$0-decodebuf5, f 15;
#X obj 708 975 array set \$0-decodebuf6, f 15;
#X obj 831 975 array set \$0-decodebuf7, f 14;
#X obj 953 980 array set \$0-decodebuf8, f 16;
#X obj 427 775 list split;
#X obj 534 778 list split;
#X obj 624 776 list split;
#X obj 709 777 list split;
#X obj 802 777 list split;
#X obj 889 774 list split;
#X obj 426 641 * 2;
#X connect 0 0 1 0;
#X connect 0 0 80 0;
#X connect 1 0 81 0;
#X connect 3 0 60 0;
#X connect 4 1 33 0;
#X connect 5 0 6 0;
#X connect 5 0 58 0;
#X connect 6 0 8 1;
#X connect 6 0 7 0;
#X connect 6 1 8 0;
#X connect 6 1 56 0;
#X connect 7 0 9 0;
#X connect 8 0 7 1;
#X connect 9 0 10 0;
#X connect 10 0 13 0;
#X connect 10 0 15 0;
#X connect 11 0 21 0;
#X connect 12 0 19 0;
#X connect 13 0 52 0;
#X connect 13 0 63 0;
#X connect 13 0 64 0;
#X connect 14 0 48 0;
#X connect 14 0 90 0;
#X connect 16 0 59 0;
#X connect 18 0 3 0;
#X connect 19 0 11 0;
#X connect 19 0 45 0;
#X connect 19 1 27 0;
#X connect 19 2 51 0;
#X connect 19 2 53 0;
#X connect 21 0 20 0;
#X connect 22 0 23 1;
#X connect 23 0 24 0;
#X connect 24 0 26 0;
#X connect 24 0 27 1;
#X connect 26 1 97 0;
#X connect 27 0 28 0;
#X connect 28 0 74 0;
#X connect 28 1 4 0;
#X connect 29 0 30 0;
#X connect 30 0 32 0;
#X connect 31 0 70 0;
#X connect 32 0 72 0;
#X connect 32 0 77 0;
#X connect 32 1 31 0;
#X connect 33 0 54 0;
#X connect 33 1 14 0;
#X connect 33 2 5 0;
#X connect 34 0 35 0;
#X connect 35 0 27 1;
#X connect 36 0 37 0;
#X connect 37 0 22 1;
#X connect 37 0 23 0;
#X connect 37 1 22 0;
#X connect 38 1 39 0;
#X connect 39 0 36 1;
#X connect 40 0 36 0;
#X connect 40 1 38 0;
#X connect 43 0 42 0;
#X connect 46 0 44 0;
#X connect 48 0 47 0;
#X connect 51 0 40 0;
#X connect 54 0 66 0;
#X connect 54 1 67 0;
#X connect 54 2 66 0;
#X connect 56 0 58 1;
#X connect 58 0 57 0;
#X connect 59 0 60 1;
#X connect 60 0 61 0;
#X connect 60 1 46 0;
#X connect 61 0 0 0;
#X connect 61 1 17 0;
#X connect 65 0 119 0;
#X connect 67 0 68 0;
#X connect 67 1 113 0;
#X connect 67 2 68 0;
#X connect 70 0 62 1;
#X connect 70 0 69 1;
#X connect 72 0 62 0;
#X connect 72 0 69 0;
#X connect 73 0 75 0;
#X connect 74 0 93 0;
#X connect 75 0 76 0;
#X connect 76 0 18 0;
#X connect 76 1 80 1;
#X connect 77 0 76 0;
#X connect 79 0 78 0;
#X connect 80 0 79 0;
#X connect 80 1 79 1;
#X connect 81 0 2 0;
#X connect 82 0 83 0;
#X connect 83 0 84 0;
#X connect 84 0 85 0;
#X connect 85 0 86 0;
#X connect 87 0 81 1;
#X connect 88 0 29 1;
#X connect 90 0 66 1;
#X connect 90 0 91 0;
#X connect 90 0 107 1;
#X connect 90 0 108 1;
#X connect 90 0 109 1;
#X connect 90 0 110 1;
#X connect 90 0 111 1;
#X connect 90 0 112 1;
#X connect 90 0 68 1;
#X connect 92 0 94 0;
#X connect 93 0 73 0;
#X connect 93 1 92 0;
#X connect 93 2 94 1;
#X connect 93 2 95 1;
#X connect 94 0 95 0;
#X connect 95 0 96 0;
#X connect 97 0 100 0;
#X connect 100 0 102 0;
#X connect 100 1 101 0;
#X connect 101 0 104 0;
#X connect 102 0 103 0;
#X connect 103 0 29 0;
#X connect 103 1 99 0;
#X connect 104 0 102 1;
#X connect 105 0 104 1;
#X connect 105 0 99 1;
#X connect 113 0 107 0;
#X connect 113 1 114 0;
#X connect 113 2 107 0;
#X connect 114 0 108 0;
#X connect 114 1 115 0;
#X connect 114 2 108 0;
#X connect 115 0 109 0;
#X connect 115 1 116 0;
#X connect 115 2 109 0;
#X connect 116 0 110 0;
#X connect 116 1 117 0;
#X connect 116 2 110 0;
#X connect 117 0 111 0;
#X connect 117 1 118 0;
#X connect 117 2 111 0;
#X connect 118 0 112 0;
#X connect 118 2 112 0;
#X connect 119 0 54 1;
#X connect 119 0 67 1;
#X connect 119 0 113 1;
#X connect 119 0 114 1;
#X connect 119 0 115 1;
#X connect 119 0 116 1;
#X connect 119 0 117 1;
#X connect 119 0 118 1;
#X restore 476 101 pd in-packet-fifo;
#X obj 338 427 declare -path ..;
#X obj 929 595 v \$0-fifofill;
#X obj 905 567 v \$0-packet-valid;
#X obj 962 618 v \$0-packet-sr;
#X obj 905 481 r \$0-report-stats;
#X text 967 318 4 peer-to-peer mode \, waiting for connection, f 22
;
#X text 967 354 5 peer-to-peer mode \, connected;
#X obj 769 99 b;
#N canvas 187 414 981 239 debugging 0;
#X obj 148 44 inlet;
#X floatatom 250 140 5 0 0 0 - - - 0;
#X floatatom 158 138 5 0 0 0 - - - 0;
#X obj 250 115 v \$0-fifowrite;
#X obj 151 113 v \$0-fifofill;
#X obj 154 163 hsl 128 15 0 127 0 0 empty empty empty -2 -8 0 10 #fcfcfc
#000000 #000000 0 1;
#X obj 150 83 spigot;
#X obj 204 84 tgl 15 0 empty empty empty 17 7 0 10 #fcfcfc #000000
#000000 0 1;
#X obj 406 26 r \$0-state;
#X floatatom 442 53 5 0 0 0 - - - 0;
#X obj 406 54 b;
#X obj 406 79 del 1;
#X obj 405 107 v \$0-port;
#X obj 482 109 v \$0-rtnport;
#X floatatom 405 132 5 0 0 0 - - - 0;
#X floatatom 482 134 5 0 0 0 - - - 0;
#X symbolatom 402 182 20 0 0 0 - - - 0;
#X obj 402 158 r \$0-host;
#X obj 830 75 r \$0-block-size;
#X floatatom 830 100 5 0 0 0 - - - 0;
#X floatatom 752 101 5 0 0 0 - - - 0;
#X obj 752 76 r \$0-nchan;
#X floatatom 642 103 5 0 0 0 - - - 0;
#X obj 642 78 r \$0-repeat;
#X connect 0 0 6 0;
#X connect 3 0 1 0;
#X connect 4 0 2 0;
#X connect 4 0 5 0;
#X connect 6 0 3 0;
#X connect 6 0 4 0;
#X connect 7 0 6 1;
#X connect 8 0 9 0;
#X connect 8 0 10 0;
#X connect 10 0 11 0;
#X connect 11 0 12 0;
#X connect 11 0 13 0;
#X connect 12 0 14 0;
#X connect 13 0 15 0;
#X connect 17 0 16 0;
#X connect 18 0 19 0;
#X connect 21 0 20 0;
#X connect 23 0 22 0;
#X restore 930 511 pd debugging;
#X obj 633 37 route client server peer off nbuf nchan repeat block
;
#X msg 1109 40 256;
#X obj 1048 101 s \$0-block-size;
#X obj 1069 620 v \$0-in-bufsize;
#X obj 1029 594 v \$0-in-chans;
#X obj 904 645 pack 0 0 0 0 0;
#X obj 905 536 t b b;
#X msg 904 670 got-packet \$1 \$2 \$3 \$4 \$5;
#X obj 265 542 array define \$0-decodebuf1 51200;
#X obj 265 565 array define \$0-decodebuf2 51200;
#X floatatom 1025 170 5 0 0 0 - - - 0;
#N canvas 506 346 643 394 count-bytes 0;
#X obj 135 46 r \$0-add-bytes-in;
#X obj 135 71 t b f;
#X obj 133 159 f;
#X obj 162 160 +;
#X obj 275 75 t b f;
#X obj 273 163 f;
#X obj 302 164 +;
#X obj 275 50 r \$0-add-bytes-out;
#X obj 26 37 r \$0-state;
#X obj 50 290 s \$0-status;
#X msg 95 111 0;
#X obj 464 53 inlet;
#X obj 465 185 min;
#X obj 432 184 f;
#X obj 465 90 t b f;
#X obj 500 184 f;
#X obj 533 185 max;
#X msg 423 123 1e+06;
#X obj 50 240 pack 0 0 0 0 0;
#X msg 50 265 bw \$2 \$3 \$4 \$5;
#X obj 26 62 metro 500;
#X obj 161 191 * 1.6e-05;
#X obj 303 191 * 1.6e-05;
#X connect 0 0 1 0;
#X connect 1 0 2 0;
#X connect 1 1 3 1;
#X connect 2 0 3 0;
#X connect 3 0 2 1;
#X connect 3 0 21 0;
#X connect 4 0 5 0;
#X connect 4 1 6 1;
#X connect 5 0 6 0;
#X connect 6 0 5 1;
#X connect 6 0 22 0;
#X connect 7 0 4 0;
#X connect 8 0 20 0;
#X connect 10 0 2 1;
#X connect 10 0 5 1;
#X connect 10 0 17 0;
#X connect 10 0 15 1;
#X connect 10 0 18 1;
#X connect 10 0 18 2;
#X connect 11 0 14 0;
#X connect 12 0 13 1;
#X connect 12 0 18 3;
#X connect 13 0 12 0;
#X connect 14 0 13 0;
#X connect 14 0 15 0;
#X connect 14 1 12 1;
#X connect 14 1 16 1;
#X connect 15 0 16 0;
#X connect 16 0 15 1;
#X connect 16 0 18 4;
#X connect 17 0 13 1;
#X connect 18 0 19 0;
#X connect 18 0 10 0;
#X connect 19 0 9 0;
#X connect 20 0 18 0;
#X connect 21 0 18 1;
#X connect 22 0 18 2;
#X restore 750 676 pd count-bytes;
#X msg 1031 38 50;
#X msg 35 526 disconnect;
#X obj 34 470 r \$0-state;
#X obj 35 498 sel 0 2;
#X obj 35 551 s \$0-to-netsend;
#X msg 75 265 stop;
#X obj 127 27 inlet~;
#X obj 176 27 inlet~;
#X obj 224 27 inlet~;
#X obj 273 27 inlet~;
#X obj 322 27 inlet~;
#X obj 371 27 inlet~;
#X obj 139 81 outlet~;
#X obj 194 81 outlet~;
#X obj 249 81 outlet~;
#X obj 304 81 outlet~;
#X obj 359 81 outlet~;
#X obj 414 81 outlet~;
#X obj 265 587 array define \$0-decodebuf3 51200;
#X obj 265 610 array define \$0-decodebuf4 51200;
#X obj 496 542 array define \$0-decodebuf5 51200;
#X obj 496 565 array define \$0-decodebuf6 51200;
#X obj 496 587 array define \$0-decodebuf7 51200;
#X obj 496 610 array define \$0-decodebuf8 51200;
#X text 297 685 buffer encodage n chenals * 512 = 4096 8 * 256 (buffer
le plus grand) * 2 ( 2octs par échantillon);
#X obj 265 514 array define \$0-encodebuf 4096;
#X connect 0 0 3 0;
#X connect 1 0 3 1;
#X connect 2 0 63 0;
#X connect 3 0 8 0;
#X connect 3 1 11 0;
#X connect 3 2 87 0;
#X connect 3 3 88 0;
#X connect 3 4 89 0;
#X connect 3 5 90 0;
#X connect 3 6 91 0;
#X connect 3 7 92 0;
#X connect 4 0 18 0;
#X connect 4 0 40 0;
#X connect 5 0 4 1;
#X connect 6 0 47 0;
#X connect 6 1 61 0;
#X connect 7 0 50 0;
#X connect 7 1 61 0;
#X connect 9 0 10 0;
#X connect 9 0 42 0;
#X connect 9 1 80 0;
#X connect 10 0 26 0;
#X connect 12 0 75 0;
#X connect 12 0 15 0;
#X connect 12 0 64 0;
#X connect 15 0 14 0;
#X connect 17 0 53 0;
#X connect 18 0 5 0;
#X connect 18 0 9 0;
#X connect 18 1 31 0;
#X connect 18 1 32 0;
#X connect 18 1 44 0;
#X connect 19 0 20 0;
#X connect 25 0 18 0;
#X connect 25 0 41 0;
#X connect 26 0 37 0;
#X connect 29 0 30 0;
#X connect 30 0 10 0;
#X connect 31 0 29 0;
#X connect 35 0 34 0;
#X connect 37 0 28 0;
#X connect 37 1 27 0;
#X connect 37 2 38 0;
#X connect 39 0 48 0;
#X connect 39 1 61 0;
#X connect 40 0 33 0;
#X connect 43 0 53 0;
#X connect 45 0 4 0;
#X connect 55 0 68 1;
#X connect 55 0 74 0;
#X connect 56 0 68 0;
#X connect 57 0 68 2;
#X connect 58 0 62 0;
#X connect 58 0 69 0;
#X connect 61 0 19 0;
#X connect 63 0 7 0;
#X connect 63 1 6 0;
#X connect 63 2 39 0;
#X connect 63 3 61 0;
#X connect 63 4 13 0;
#X connect 63 5 14 0;
#X connect 63 6 46 0;
#X connect 63 7 65 0;
#X connect 63 7 73 0;
#X connect 64 0 65 0;
#X connect 66 0 68 4;
#X connect 67 0 68 3;
#X connect 68 0 70 0;
#X connect 69 0 56 0;
#X connect 69 1 55 0;
#X connect 69 1 57 0;
#X connect 69 1 66 0;
#X connect 69 1 67 0;
#X connect 70 0 34 0;
#X connect 75 0 13 0;
#X connect 76 0 79 0;
#X connect 77 0 78 0;
#X connect 78 0 76 0;
#X connect 78 1 76 0;
#X connect 80 0 10 0;
#X connect 81 0 3 2;
#X connect 82 0 3 3;
#X connect 83 0 3 4;
#X connect 84 0 3 5;
#X connect 85 0 3 6;
#X connect 86 0 3 7;
